<svg width="65px" height="25px" version="1.1" id="Layer_1" xmlns="http://www.w3.org/2000/svg" xmlns:xlink="http://www.w3.org/1999/xlink" x="0px" y="0px" viewBox="0 0 64 26" enable-background="new 0 0 64 26" xml:space="preserve">
<g id="surface1">
	<path fill="#FF6600" d="M26.67,9.8h4.27v2.13h-4.27V9.8z"></path>
	<path fill="#FF6600" d="M63.08,6.61l-7.25-1.03c-1.32-0.81-2.69-1.54-4.11-2.18c-4.67-2.11-9.74-3.21-14.86-3.2H35.6   c-6.05,0-12,1.52-17.31,4.42l-3.66,2c-4.28,0.05-8.48,1.19-12.2,3.31c-1.51,0.87-2.44,2.48-2.45,4.22v6.33   c0,0.59,0.48,1.07,1.07,1.07h3.58c1.17,3.32,4.8,5.07,8.13,3.91c1.83-0.64,3.27-2.08,3.91-3.91h28.5c1.17,3.32,4.8,5.07,8.13,3.91   c1.83-0.64,3.27-2.08,3.91-3.91h0.38c0.14,0,0.27-0.03,0.4-0.08l3.46-1.39c1.54-0.61,2.55-2.1,2.55-3.76V7.68   C64,7.14,63.61,6.68,63.08,6.61z M14.85,20.25c-0.47,2.31-2.73,3.8-5.03,3.33c-2.31-0.47-3.8-2.73-3.33-5.03   c0.47-2.31,2.73-3.8,5.03-3.33c1.99,0.41,3.41,2.15,3.41,4.18C14.93,19.69,14.9,19.97,14.85,20.25z M34.13,19.4H17.06   c0-3.53-2.86-6.4-6.4-6.4s-6.4,2.87-6.4,6.4H2.13v-5.27c0-0.98,0.52-1.88,1.37-2.36c3.48-1.99,7.42-3.03,11.43-3.03h19.2V19.4z    M34.13,6.6H19.11l0.21-0.11c4.56-2.48,9.63-3.88,14.81-4.11V6.6z M36.27,2.33h0.6c4.3,0,8.56,0.81,12.55,2.4l-1.86,1.86H36.27   V2.33z M55.38,20.25c-0.47,2.31-2.73,3.8-5.04,3.33s-3.8-2.73-3.33-5.03c0.47-2.31,2.73-3.8,5.03-3.33   c1.99,0.41,3.41,2.15,3.41,4.18C55.47,19.69,55.44,19.97,55.38,20.25z M61.87,9.8h-3.2v2.13h3.2v4.37c0,0.79-0.48,1.49-1.21,1.78   l-3.06,1.23c0-0.1-0.01-0.2-0.02-0.29c-0.01-0.1-0.01-0.21-0.02-0.32c-0.01-0.11-0.03-0.21-0.05-0.32   c-0.02-0.11-0.03-0.21-0.05-0.31s-0.05-0.21-0.08-0.31s-0.05-0.2-0.08-0.3c-0.03-0.1-0.07-0.19-0.11-0.29   c-0.04-0.1-0.07-0.2-0.11-0.29c-0.04-0.1-0.09-0.18-0.13-0.27s-0.09-0.19-0.14-0.28c-0.05-0.09-0.11-0.17-0.16-0.25   c-0.05-0.09-0.11-0.18-0.17-0.27c-0.06-0.09-0.12-0.16-0.18-0.24s-0.12-0.17-0.19-0.25s-0.13-0.15-0.2-0.21   c-0.07-0.07-0.14-0.16-0.21-0.23c-0.07-0.07-0.15-0.13-0.22-0.2s-0.15-0.14-0.23-0.21c-0.08-0.07-0.16-0.12-0.24-0.18   s-0.16-0.13-0.25-0.18c-0.08-0.06-0.18-0.11-0.27-0.17c-0.09-0.06-0.17-0.11-0.25-0.15c-0.09-0.05-0.19-0.09-0.29-0.14   c-0.1-0.05-0.17-0.09-0.27-0.13c-0.09-0.04-0.21-0.08-0.32-0.12c-0.11-0.04-0.18-0.07-0.27-0.1c-0.12-0.04-0.25-0.06-0.37-0.1   c-0.08-0.02-0.16-0.04-0.24-0.06c-0.13-0.03-0.27-0.04-0.4-0.06c-0.08-0.01-0.15-0.03-0.23-0.04c-0.21-0.02-0.43-0.03-0.65-0.03   c-3.53,0-6.4,2.87-6.4,6.4h-8.54V8.74h11.73c0.28,0,0.55-0.11,0.75-0.31l2.77-2.77c1.16,0.55,2.29,1.17,3.38,1.85   c0.13,0.08,0.27,0.13,0.41,0.15l6.55,0.94v1.2H61.87z"></path>
</g>
</svg>