<svg width="64px" height="48px" version="1.1" id="Layer_1" xmlns="http://www.w3.org/2000/svg" xmlns:xlink="http://www.w3.org/1999/xlink" x="0px" y="0px" viewBox="0 0 64 48" enable-background="new 0 0 64 48" xml:space="preserve">
<path fill="#ffffff" d="M62.67,8h-16c-0.74,0-1.33,0.6-1.33,1.33v16V40h-2.67V28V1.33c0-0.74-0.6-1.33-1.33-1.33  c-0.74,0-1.33,0.6-1.33,1.33v25.33h-3.19L30.34,7.22c-0.91-2.73-3.45-4.56-6.33-4.56h-9.33c-0.74,0-1.33,0.6-1.33,1.33v14.67H6.68  c-3.68,0-6.67,2.99-6.67,6.67v13.33c0,2.21,1.79,4,4,4h1.47c0.62,3.04,3.31,5.33,6.53,5.33s5.91-2.29,6.53-5.33h5.6  c0.62,3.04,3.31,5.33,6.53,5.33s5.91-2.29,6.53-5.33h4.13h5.33h16c0.74,0,1.33-0.6,1.33-1.33v-16v-16C64,8.6,63.4,8,62.67,8z   M16,5.33h8c1.72,0,3.25,1.1,3.79,2.74l6.2,18.6H20c-2.21,0-4-1.79-4-4V20V5.33z M2.67,38.67V25.34c0-2.21,1.79-4,4-4h6.67v1.33  c0,3.68,2.99,6.67,6.67,6.67h15.84H40V40h-2.8c-0.62-3.04-3.31-5.33-6.53-5.33s-5.91,2.29-6.53,5.33h-5.6  c-0.62-3.04-3.31-5.33-6.53-5.33S6.1,36.96,5.48,40H4C3.27,40,2.67,39.4,2.67,38.67z M12,45.33c-2.21,0-4-1.79-4-4s1.79-4,4-4  s4,1.79,4,4C16,43.54,14.21,45.33,12,45.33z M30.67,45.33c-2.21,0-4-1.79-4-4s1.79-4,4-4s4,1.79,4,4  C34.67,43.54,32.87,45.33,30.67,45.33z M48,10.67h5.33V16c0,0.74,0.6,1.33,1.33,1.33c0.74,0,1.33-0.6,1.33-1.33v-5.33h5.33V24H48  V10.67z M48,40V26.67h5.33V32c0,0.74,0.6,1.33,1.33,1.33c0.74,0,1.33-0.6,1.33-1.33v-5.33h5.33V40H48z"></path>
</svg>