<svg width="64px" height="57px" version="1.1" id="Layer_1" xmlns="http://www.w3.org/2000/svg" xmlns:xlink="http://www.w3.org/1999/xlink" x="0px" y="0px" viewBox="0 0 64 58" enable-background="new 0 0 64 58" xml:space="preserve">
<path fill="#ffffff" d="M63.69,20.78l-4.04-4.04L56.41,0.88c-0.08-0.37-0.34-0.68-0.7-0.8c-0.36-0.12-0.76-0.04-1.04,0.21  l-5.24,4.59c-0.19,0.16-0.31,0.38-0.35,0.63l-1.05,6.25c-0.04,0.21-0.01,0.42,0.08,0.61l0.64,1.45l-1.12,0.91  c-0.36,0.3-0.65,0.66-0.87,1.07l-12.08,8.78c-0.29,0.21-0.46,0.56-0.44,0.92l0.6,11.79l-0.57,4.51h-3.33  c-0.59,0-1.07,0.48-1.07,1.07h-2.13v-3.2H32c0.59,0,1.07-0.48,1.07-1.07v-2.13c0-0.11-0.02-0.22-0.05-0.32l-5.33-17.07  c-0.14-0.44-0.55-0.75-1.02-0.75V16.2h-2.13v2.13h-6.4V16.2H16v2.13c-0.59,0-1.07,0.48-1.07,1.07v12.8h-4.27v-6.4  c0-2.36-1.91-4.27-4.27-4.27H5.32v2.13h1.07c1.18,0,2.13,0.96,2.13,2.13v6.4H4.25v-1.07h1.07c0.59,0,1.07-0.48,1.07-1.07v-3.2  c0-0.59-0.48-1.07-1.07-1.07H1.05c-0.59,0-1.07,0.48-1.07,1.07v3.2c0,0.59,0.48,1.07,1.07,1.07h1.07v1.07H1.05  c-0.59,0-1.07,0.48-1.07,1.07v18.13c0,0.59,0.48,1.07,1.07,1.07h6.7c1.14,3.2,4.2,5.5,7.79,5.5s6.64-2.3,7.79-5.5h3.33  c0.59,0,1.07-0.48,1.07-1.07v-1.07h2.13v1.07c0,0.59,0.48,1.07,1.07,1.07h5.26c1.14,3.2,4.2,5.5,7.79,5.5c2.59,0,4.9-1.2,6.42-3.06  c1.19-1.42,1.87-3.22,1.87-5.1c0-0.31-0.02-0.62-0.06-0.92c-0.41-4.18-3.95-7.46-8.23-7.46c-0.22,0-0.44,0.02-0.66,0.03l-0.69-2.07  l-0.46-2.28l1.49-9.71l6.95-6.44c0.08-0.02,0.16-0.03,0.24-0.05l0.92-0.26l0.59,1.32c0.17,0.38,0.55,0.63,0.97,0.63h9.6  c0.43,0,0.82-0.26,0.99-0.66C64.08,21.55,63.99,21.09,63.69,20.78z M27.22,24.74l2.67,8.53h-8.55v-8.53H27.22z M2.13,27.94h2.13V29  H2.13V27.94z M10.28,49.7c0-2.91,2.37-5.27,5.27-5.27c2.91,0,5.27,2.37,5.27,5.27c0,2.91-2.37,5.27-5.27,5.27  C12.64,54.97,10.28,52.6,10.28,49.7z M25.6,50.34h-1.81c0.02-0.21,0.03-0.42,0.03-0.64c0-4.56-3.71-8.27-8.27-8.27  s-8.27,3.71-8.27,8.27c0,0.22,0.02,0.43,0.03,0.64H2.13v-4.09h2.13c0.26,0,0.51-0.09,0.71-0.27l7.17-6.31H25.6L25.6,50.34  L25.6,50.34z M11.73,37.54c-0.26,0-0.51,0.09-0.71,0.27l-7.16,6.31H2.13v-9.78H16c0.59,0,1.07-0.48,1.07-1.07v-12.8h8.82l0.67,2.13  h-6.28c-0.59,0-1.07,0.48-1.07,1.07v10.67c0,0.59,0.48,1.07,1.07,1.07h10.28l0.38,1.23v0.9H11.73z M29.87,48.2h-2.13V45h2.13V48.2z   M38.7,49.7c0-2.91,2.37-5.27,5.27-5.27s5.27,2.37,5.27,5.27c0,2.91-2.37,5.27-5.27,5.27S38.7,52.6,38.7,49.7z M35.7,49.7  c0,0.22,0.02,0.43,0.03,0.64H32v-6.4h3.2c0.54,0,0.99-0.4,1.06-0.93l0.7-5.62v-0.02l0.09-0.7c0.09-0.7,0.67-1.24,1.37-1.26  c0.71-0.03,1.33,0.46,1.46,1.16l0.67,3.32c0.01,0.04,0.02,0.09,0.03,0.13l0.63,1.9C38.01,43.04,35.7,46.1,35.7,49.7z M41.94,26.09  c-0.18,0.16-0.29,0.38-0.33,0.62l-1.11,7.21c-1.1-0.79-2.55-0.87-3.73-0.21l-0.39-7.74l10.13-7.36c0.04,0.13,0.09,0.26,0.14,0.38  c0.29,0.62,0.75,1.14,1.32,1.51L41.94,26.09z M50.27,18.86c-0.67,0.2-1.39-0.13-1.68-0.77c-0.28-0.59-0.11-1.29,0.39-1.71l0,0  l0.66-0.54l1.26,2.84L50.27,18.86z M54.03,20.47l-0.68-1.53l-2.28-5.12l-0.9-2.02l0.93-5.56l3.58-3.13l2.94,14.38  c0.04,0.21,0.14,0.39,0.29,0.54l2.45,2.45L54.03,20.47L54.03,20.47z"></path>
</svg>