<?xml version="1.0" ?>

<svg xmlns="http://www.w3.org/2000/svg" width="31.849" height="28" viewBox="0 0 31.849 28">
  <path id="Path_5" data-name="Path 5" d="M29.277,31.1a8.819,8.819,0,0,0-12.471.007l-.871.871-.884-.884A8.81,8.81,0,0,0,2.58,31.08a8.81,8.81,0,0,0,.014,12.471l12.68,12.68a.9.9,0,0,0,1.283.007l12.707-12.66A8.835,8.835,0,0,0,29.277,31.1Zm-1.3,11.188L15.915,54.307,3.876,42.268a6.99,6.99,0,1,1,9.885-9.885l1.526,1.526a.909.909,0,0,0,1.29,0L18.089,32.4a6.994,6.994,0,0,1,9.891,9.891Z" transform="translate(0 -28.501)" fill="#6a6a6a"/>
</svg>

