<?xml version="1.0" ?>

<svg xmlns="http://www.w3.org/2000/svg" width="251.854" height="48.978" viewBox="0 0 251.854 48.978">
  <path id="Path_1" data-name="Path 1" d="M1861.825,4188.46l26.564,45.145-7.122.06-.011-.021-27.632.263-3.248.03.006-.011-3.894.023,15.08-25.626,3.559,5.809-7.849,13.495,20.31-.193-1.928-3.264-12.318-.167,3.429-5.978,5.275.027-10.21-17.284-19.529,33.181h-7.246l23.143-39.33Z" transform="translate(-1835.06 -4188.46)" fill="#f60" fill-rule="evenodd"/>
  <path id="Path_345" data-name="Path 345" d="M23.657,0H17.813L16.12-5.3H7.653L5.977,0H.166L8.832-23.807H15.19ZM14.892-9.413l-2.557-8a10.428,10.428,0,0,1-.4-2.142H11.8a9.08,9.08,0,0,1-.415,2.075L8.8-9.413ZM42.268,0H37.038V-2.59h-.083a5.933,5.933,0,0,1-5.2,3q-5.91,0-5.91-7.155V-17h5.229v9.795q0,3.6,2.855,3.6a2.824,2.824,0,0,0,2.258-.988,3.983,3.983,0,0,0,.847-2.681V-17h5.229ZM56.96-.2a7.754,7.754,0,0,1-3.5.614q-5.545,0-5.545-5.761v-7.786H45.156V-17h2.756v-3.669l5.229-1.494V-17H56.96v3.868H53.142v6.873q0,2.656,2.108,2.656a3.555,3.555,0,0,0,1.71-.481ZM67.884.415A9.139,9.139,0,0,1,61.2-1.967,8.637,8.637,0,0,1,58.77-8.434a8.637,8.637,0,0,1,2.523-6.6,9.535,9.535,0,0,1,6.823-2.382,9.028,9.028,0,0,1,6.641,2.382,8.468,8.468,0,0,1,2.407,6.3,8.989,8.989,0,0,1-2.482,6.69A9.24,9.24,0,0,1,67.884.415ZM68.017-13.4a3.5,3.5,0,0,0-2.889,1.278A5.637,5.637,0,0,0,64.1-8.5q0,4.9,3.951,4.9,3.769,0,3.769-5.03Q71.818-13.4,68.017-13.4Zm32.605,11.8A17.133,17.133,0,0,1,91.956.415q-5.744,0-9.056-3.179t-3.312-8.757a12.226,12.226,0,0,1,3.619-9.147,13.186,13.186,0,0,1,9.629-3.536,19.558,19.558,0,0,1,6.674,1.046v5.03a13.265,13.265,0,0,0-6.74-1.594,7.236,7.236,0,0,0-5.437,2.167,7.959,7.959,0,0,0-2.1,5.786,7.982,7.982,0,0,0,1.884,5.678,6.642,6.642,0,0,0,5.088,2.009,7.083,7.083,0,0,0,3.055-.548V-9.28H90.5v-4.283h10.127ZM109.985,0h-5.246V-25.168h5.246ZM122.5.415a9.139,9.139,0,0,1-6.682-2.382,8.637,8.637,0,0,1-2.432-6.466,8.637,8.637,0,0,1,2.523-6.6,9.535,9.535,0,0,1,6.823-2.382,9.028,9.028,0,0,1,6.641,2.382,8.468,8.468,0,0,1,2.407,6.3,8.989,8.989,0,0,1-2.482,6.69A9.24,9.24,0,0,1,122.5.415Zm.133-13.812a3.5,3.5,0,0,0-2.889,1.278A5.637,5.637,0,0,0,118.718-8.5q0,4.9,3.951,4.9,3.769,0,3.769-5.03Q126.438-13.4,122.636-13.4ZM140.5-1.976h-.066V0h-5.246V-25.168h5.246v10.725h.066a6.225,6.225,0,0,1,5.528-2.972,6.066,6.066,0,0,1,5.063,2.258,9.737,9.737,0,0,1,1.776,6.176,10.544,10.544,0,0,1-2.075,6.823A6.76,6.76,0,0,1,145.247.415,5.356,5.356,0,0,1,140.5-1.976Zm-.149-7.172V-7.4a3.979,3.979,0,0,0,.946,2.723A3.079,3.079,0,0,0,143.72-3.6,3.217,3.217,0,0,0,146.5-4.989a6.693,6.693,0,0,0,.988-3.926,5.325,5.325,0,0,0-.9-3.3A3.053,3.053,0,0,0,144-13.4a3.335,3.335,0,0,0-2.615,1.179A4.477,4.477,0,0,0,140.35-9.147ZM170.083,0h-4.964V-2.44h-.066A5.54,5.54,0,0,1,159.989.415a5.3,5.3,0,0,1-3.893-1.4,5.027,5.027,0,0,1-1.419-3.744q0-4.947,5.86-5.711l4.615-.614q0-2.789-3.021-2.789a10.313,10.313,0,0,0-5.777,1.81v-3.951a13,13,0,0,1,3-1,15.752,15.752,0,0,1,3.461-.432q7.271,0,7.271,7.255Zm-4.931-6.906V-8.052l-3.088.4q-2.557.332-2.557,2.308a1.907,1.907,0,0,0,.623,1.469,2.392,2.392,0,0,0,1.685.573,3.106,3.106,0,0,0,2.407-1.021A3.688,3.688,0,0,0,165.152-6.906ZM179.479,0h-5.246V-25.168h5.246Z" transform="translate(53.329 35.245)" fill="#373435"/>
  <path id="Path_346" data-name="Path 346" d="M3.4-.057q-.114.032-.263.063t-.317.06Q2.647.1,2.466.111T2.107.127A2.109,2.109,0,0,1,1.381.016,1.333,1.333,0,0,1,.882-.3,1.217,1.217,0,0,1,.594-.771,1.907,1.907,0,0,1,.5-1.377q0-.14.016-.311t.041-.359q.025-.187.06-.381T.692-2.8q.019-.083.086-.4t.168-.79q.1-.47.222-1.044t.251-1.174q.13-.6.251-1.174T1.892-8.43q.1-.47.168-.79t.086-.4H4.177L2.736-2.844q-.051.222-.108.5a2.412,2.412,0,0,0-.057.479.365.365,0,0,0,.152.336.645.645,0,0,0,.349.1,1.636,1.636,0,0,0,.333-.035,1.754,1.754,0,0,0,.308-.092q-.083.381-.159.752T3.4-.057ZM11.21-3.923A5.046,5.046,0,0,1,11.121-3a4.56,4.56,0,0,1-.279.93,4.1,4.1,0,0,1-.492.86A3.18,3.18,0,0,1,9.62-.5a3.588,3.588,0,0,1-.99.479A4.237,4.237,0,0,1,7.351.159a3.455,3.455,0,0,1-1.26-.209,2.4,2.4,0,0,1-.885-.578A2.348,2.348,0,0,1,4.685-1.5,3.364,3.364,0,0,1,4.513-2.59a4.957,4.957,0,0,1,.1-.955,4.379,4.379,0,0,1,.3-.936,4,4,0,0,1,.511-.847,3.31,3.31,0,0,1,.743-.692,3.634,3.634,0,0,1,.987-.467,4.223,4.223,0,0,1,1.247-.171,3.457,3.457,0,0,1,1.2.194,2.409,2.409,0,0,1,.882.552,2.368,2.368,0,0,1,.546.863A3.219,3.219,0,0,1,11.21-3.923ZM9.185-3.9a1.809,1.809,0,0,0-.063-.492,1.138,1.138,0,0,0-.187-.387.892.892,0,0,0-.3-.254.885.885,0,0,0-.413-.092,1.184,1.184,0,0,0-.714.229,1.959,1.959,0,0,0-.53.59,3.029,3.029,0,0,0-.33.813,3.655,3.655,0,0,0-.114.9,1.342,1.342,0,0,0,.27.9.877.877,0,0,0,.7.317A1.227,1.227,0,0,0,8.23-1.6a1.862,1.862,0,0,0,.527-.581,2.9,2.9,0,0,0,.321-.809A3.885,3.885,0,0,0,9.185-3.9Zm8.76,3.117A8.379,8.379,0,0,1,17.469.774a3.737,3.737,0,0,1-.806,1.209,3.486,3.486,0,0,1-1.276.787,5.5,5.5,0,0,1-1.885.282,4.679,4.679,0,0,1-1.136-.13,5.114,5.114,0,0,1-.971-.346L11.75.965a4.037,4.037,0,0,0,.876.438,2.938,2.938,0,0,0,1,.171,2.562,2.562,0,0,0,.866-.133,1.774,1.774,0,0,0,.641-.394A2.121,2.121,0,0,0,15.583.4a4.226,4.226,0,0,0,.286-.885l.114-.571h-.025a4.1,4.1,0,0,1-.362.467,2.492,2.492,0,0,1-.435.384,2.117,2.117,0,0,1-.527.263,2.011,2.011,0,0,1-.651.1,1.957,1.957,0,0,1-.866-.181,1.74,1.74,0,0,1-.622-.5,2.242,2.242,0,0,1-.378-.774,3.669,3.669,0,0,1-.127-1,5.046,5.046,0,0,1,.117-1.082A4.6,4.6,0,0,1,12.46-4.4a4.118,4.118,0,0,1,.59-.9,3.739,3.739,0,0,1,.828-.714,4.082,4.082,0,0,1,1.063-.473,4.656,4.656,0,0,1,1.3-.171q.394,0,.784.029t.762.076q.371.048.708.108t.622.117ZM16.866-5.186a2.625,2.625,0,0,0-.34-.048q-.194-.016-.409-.016a1.651,1.651,0,0,0-.822.216,2.187,2.187,0,0,0-.67.59,2.939,2.939,0,0,0-.451.882,3.512,3.512,0,0,0-.165,1.092,1.875,1.875,0,0,0,.048.435,1.008,1.008,0,0,0,.149.346.738.738,0,0,0,.251.229.7.7,0,0,0,.346.083,1.068,1.068,0,0,0,.467-.1,1.4,1.4,0,0,0,.387-.276,2.061,2.061,0,0,0,.311-.4,3.961,3.961,0,0,0,.244-.482,5.164,5.164,0,0,0,.187-.514q.079-.26.13-.5Zm6.5-3.409a1.007,1.007,0,0,1-.1.444,1.069,1.069,0,0,1-.257.34,1.129,1.129,0,0,1-.381.219,1.43,1.43,0,0,1-.473.076,1.332,1.332,0,0,1-.448-.073,1.084,1.084,0,0,1-.355-.2.955.955,0,0,1-.235-.308.88.88,0,0,1-.086-.387,1.037,1.037,0,0,1,.092-.444,1.03,1.03,0,0,1,.254-.34,1.124,1.124,0,0,1,.384-.219,1.478,1.478,0,0,1,.482-.076,1.305,1.305,0,0,1,.444.073,1.091,1.091,0,0,1,.352.2.955.955,0,0,1,.235.308A.88.88,0,0,1,23.366-8.595Zm-.66,8.538q-.114.032-.263.063t-.317.06q-.168.029-.349.044t-.359.016A2.109,2.109,0,0,1,20.69.016a1.333,1.333,0,0,1-.5-.311A1.217,1.217,0,0,1,19.9-.771a1.907,1.907,0,0,1-.092-.606q0-.14.016-.311t.041-.359q.025-.187.06-.381T20-2.8q.025-.108.086-.4t.14-.663q.079-.375.168-.79t.168-.79q.079-.375.14-.663t.086-.4H22.82l-.774,3.656q-.051.222-.108.5a2.412,2.412,0,0,0-.057.479.365.365,0,0,0,.152.336.645.645,0,0,0,.349.1,1.636,1.636,0,0,0,.333-.035,1.754,1.754,0,0,0,.308-.092q-.083.381-.159.752T22.706-.057Zm5.916-4.818a3.185,3.185,0,0,0-.311-.14q-.178-.07-.378-.127t-.409-.1a2.27,2.27,0,0,0-.406-.038.992.992,0,0,0-.663.178.557.557,0,0,0-.2.432.53.53,0,0,0,.2.425,2.781,2.781,0,0,0,.521.33,6.284,6.284,0,0,1,.667.368,2.166,2.166,0,0,1,.476.406,1.521,1.521,0,0,1,.286.5,1.955,1.955,0,0,1,.1.638,2.028,2.028,0,0,1-.159.774,1.844,1.844,0,0,1-.514.7,2.7,2.7,0,0,1-.936.5,4.618,4.618,0,0,1-1.425.19q-.241,0-.514-.025t-.54-.07Q24.14.019,23.9-.044a3.642,3.642,0,0,1-.435-.14l.3-1.53a4.1,4.1,0,0,0,.381.178,4.868,4.868,0,0,0,.46.162,4.745,4.745,0,0,0,.5.121,2.853,2.853,0,0,0,.514.048,1.226,1.226,0,0,0,.708-.165.524.524,0,0,0,.232-.451.584.584,0,0,0-.178-.422,2.174,2.174,0,0,0-.616-.384,5.046,5.046,0,0,1-.638-.355,2.26,2.26,0,0,1-.467-.406,1.528,1.528,0,0,1-.286-.5,1.862,1.862,0,0,1-.1-.616,2.134,2.134,0,0,1,.143-.746,1.854,1.854,0,0,1,.473-.7,2.5,2.5,0,0,1,.873-.514,3.89,3.89,0,0,1,1.336-.2q.241,0,.5.022t.5.06q.241.038.457.089t.381.1Zm5.446-.146H32.551L32.03-2.59q-.013.083-.032.178t-.035.19q-.016.1-.029.181a1.007,1.007,0,0,0-.013.143.5.5,0,0,0,.127.375.6.6,0,0,0,.419.121,1.255,1.255,0,0,0,.194-.019q.117-.019.241-.051t.238-.067q.114-.035.184-.06L33.014-.114a2.772,2.772,0,0,1-.279.089q-.165.044-.362.083t-.409.063a3.506,3.506,0,0,1-.416.025,2.274,2.274,0,0,1-.806-.124,1.29,1.29,0,0,1-.517-.343,1.258,1.258,0,0,1-.273-.511,2.415,2.415,0,0,1-.079-.635q0-.1.013-.235t.035-.273q.022-.14.051-.282t.054-.263l.521-2.5h-1L29.9-6.5h.958l.33-1.523L33.3-8.544,32.875-6.5h1.542Zm4.005-3.574a1.007,1.007,0,0,1-.1.444,1.069,1.069,0,0,1-.257.34,1.129,1.129,0,0,1-.381.219,1.43,1.43,0,0,1-.473.076,1.332,1.332,0,0,1-.448-.073,1.084,1.084,0,0,1-.355-.2.955.955,0,0,1-.235-.308.88.88,0,0,1-.086-.387,1.037,1.037,0,0,1,.092-.444,1.03,1.03,0,0,1,.254-.34,1.124,1.124,0,0,1,.384-.219,1.478,1.478,0,0,1,.482-.076,1.305,1.305,0,0,1,.444.073,1.091,1.091,0,0,1,.352.2.955.955,0,0,1,.235.308A.88.88,0,0,1,38.073-8.595Zm-.66,8.538q-.114.032-.263.063t-.317.06q-.168.029-.349.044t-.359.016A2.109,2.109,0,0,1,35.4.016,1.333,1.333,0,0,1,34.9-.3a1.217,1.217,0,0,1-.289-.476,1.907,1.907,0,0,1-.092-.606q0-.14.016-.311t.041-.359q.025-.187.06-.381t.073-.371q.025-.108.086-.4t.14-.663q.079-.375.168-.79t.168-.79q.079-.375.14-.663t.086-.4h2.031l-.774,3.656q-.051.222-.108.5a2.412,2.412,0,0,0-.057.479.365.365,0,0,0,.152.336.645.645,0,0,0,.349.1,1.636,1.636,0,0,0,.333-.035,1.754,1.754,0,0,0,.308-.092q-.083.381-.159.752T37.413-.057Zm6.449-4.659A2.023,2.023,0,0,0,43.3-5a2.223,2.223,0,0,0-.743-.121,1.648,1.648,0,0,0-.838.216,2.114,2.114,0,0,0-.635.559,2.6,2.6,0,0,0-.4.768,2.675,2.675,0,0,0-.14.838,1.506,1.506,0,0,0,.3,1.009,1.138,1.138,0,0,0,.914.355,2.185,2.185,0,0,0,.4-.038,3.141,3.141,0,0,0,.409-.1q.2-.067.39-.149a2.678,2.678,0,0,0,.34-.178L42.993-.311a4.322,4.322,0,0,1-.92.346,3.968,3.968,0,0,1-.978.124,2.917,2.917,0,0,1-1.114-.2,2.2,2.2,0,0,1-.8-.552,2.315,2.315,0,0,1-.486-.847A3.447,3.447,0,0,1,38.53-2.52a4.553,4.553,0,0,1,.124-1.063,4.325,4.325,0,0,1,.359-.974,4.021,4.021,0,0,1,.581-.844,3.647,3.647,0,0,1,.793-.667,3.875,3.875,0,0,1,.99-.435,4.236,4.236,0,0,1,1.171-.156,4.157,4.157,0,0,1,.552.035,4.36,4.36,0,0,1,.476.089,2.9,2.9,0,0,1,.381.121,2.363,2.363,0,0,1,.267.124Z" transform="translate(207.629 45.925)" fill="#373435"/>
</svg>
