<svg width="48px" height="29px" version="1.1" id="Layer_1" xmlns="http://www.w3.org/2000/svg" xmlns:xlink="http://www.w3.org/1999/xlink" x="0px" y="0px" viewBox="0 0 48 30" enable-background="new 0 0 48 30" xml:space="preserve">
<g>
	<g>
		<path fill="#FF6600" d="M7.97,13.64C3.58,13.64,0,17.22,0,21.61c0,4.39,3.57,7.97,7.97,7.97s7.97-3.57,7.97-7.97    c0-3.35-2.08-6.22-5.02-7.4l0.49-1.82c3.74,1.4,6.4,5,6.4,9.22c0,1.02-0.16,2.03-0.46,3c-0.09,0.29-0.04,0.6,0.14,0.84    s0.46,0.38,0.76,0.38h9.92c0.4,0,0.76-0.25,0.89-0.63l0.92-2.65h2.15c0.47,3.95,3.83,7.03,7.91,7.03c4.39,0,7.97-3.57,7.97-7.97    c0-4.39-3.58-7.97-7.97-7.97c-4.08,0-7.45,3.08-7.91,7.03h-1.5l1.35-3.91c0.55-1.58,1.19-2.26,2.97-3.15l6.9-3.43    c2.86-1.42,3.62-2.67,5.62-7.42c0.13-0.32,0.08-0.68-0.13-0.95s-0.55-0.4-0.89-0.34l-8.04,1.36c-1.62,0.24-2.58,1.01-3.04,2.4    l-0.44,1.36l-7.11,2.03c-1.45-2.48-2.93-3.86-4.61-4.33c-2.53-0.7-5.01,0.75-8.16,2.6c-0.21,0.13-0.43,0.25-0.65,0.38    c-0.16-0.4-0.26-0.88-0.39-1.49c-0.05-0.24-0.1-0.49-0.17-0.77l1.53-1.31c0.21-0.18,0.32-0.43,0.33-0.7    c0-0.27-0.11-0.53-0.31-0.71c-1.54-1.37-3.04-1.98-4.6-1.85C8.71,0.6,6.56,2.06,4.23,4.9c-1.81,2.2-1.68,3.91,0.49,6.78    c0.22,0.3,0.6,0.43,0.96,0.35c0.75-0.18,1.52-0.27,2.29-0.27c0.56,0,1.1,0.05,1.63,0.14l-0.49,1.82    C8.74,13.66,8.35,13.64,7.97,13.64L7.97,13.64z M34.01,22.54h1.91c0.43,1.88,2.11,3.28,4.11,3.28c2.33,0,4.22-1.89,4.22-4.22    s-1.89-4.22-4.22-4.22c-2,0-3.68,1.41-4.11,3.28h-1.91c0.45-2.92,2.98-5.16,6.02-5.16c3.36,0,6.09,2.73,6.09,6.09    s-2.73,6.09-6.09,6.09C36.99,27.7,34.46,25.46,34.01,22.54z M40.97,21.6c0-0.52-0.42-0.94-0.94-0.94h-2.15    c0.36-0.83,1.19-1.41,2.15-1.41c1.29,0,2.34,1.05,2.34,2.34s-1.05,2.34-2.34,2.34c-0.96,0-1.79-0.58-2.15-1.41h2.15    C40.55,22.54,40.97,22.12,40.97,21.6z M25.94,9.16l-5.14,1.47l-4.51-1.76c-0.19-0.08-0.37-0.15-0.53-0.23    c0.07-0.04,0.15-0.09,0.22-0.13c2.76-1.62,4.95-2.9,6.71-2.41C23.79,6.4,24.85,7.41,25.94,9.16z M17.7,15.09    c-2.1-3.14-5.68-5.2-9.74-5.2c-0.71,0-1.42,0.06-2.11,0.19C5.71,9.88,5.59,9.7,5.48,9.52l1.33-0.55c0.48-0.2,0.71-0.75,0.51-1.22    C7.12,7.27,6.58,7.04,6.1,7.24L4.82,7.77c0-0.65,0.37-1.1,0.83-1.67c1.96-2.39,3.73-3.66,5.26-3.78c0.77-0.06,1.54,0.17,2.35,0.72    l-1.1,0.94c-0.27,0.23-0.39,0.6-0.3,0.95c0.12,0.44,0.2,0.85,0.29,1.25c0.38,1.81,0.71,3.38,3.45,4.45l4.8,1.87    c0.19,0.07,0.4,0.08,0.6,0.03l14.91-4.27c0.3-0.09,0.54-0.32,0.63-0.61l0.59-1.83c0.2-0.61,0.5-0.97,1.54-1.13    c0.01,0,0.01,0,0.02,0l6.35-1.08c-1.43,3.21-2.11,3.93-4.05,4.9l-6.9,3.43c-1.92,0.95-3.11,1.91-3.91,4.21l-2.7,7.81h-8.05    c0.16-0.77,0.24-1.55,0.24-2.34c0-0.3-0.01-0.6-0.03-0.89h3.22c0.52,0,0.94-0.42,0.94-0.94s-0.42-0.94-0.94-0.94h-3.52    c-0.16-0.65-0.37-1.27-0.63-1.88h2.04c0.52,0,0.94-0.42,0.94-0.94c0-0.52-0.42-0.94-0.94-0.94L17.7,15.09L17.7,15.09z M7.97,27.7    c-3.36,0-6.09-2.73-6.09-6.09s2.73-6.09,6.09-6.09c0.22,0,0.44,0.01,0.65,0.04L8.13,17.4c-0.05,0-0.11,0-0.16,0    c-2.33,0-4.22,1.89-4.22,4.22s1.89,4.22,4.22,4.22s4.22-1.89,4.22-4.22c0-1.62-0.91-3.02-2.25-3.73l0.49-1.84    c2.14,0.95,3.63,3.09,3.63,5.57C14.06,24.96,11.33,27.7,7.97,27.7L7.97,27.7z M9.43,19.77c0.54,0.43,0.88,1.09,0.88,1.83    c0,1.29-1.05,2.34-2.34,2.34s-2.34-1.05-2.34-2.34c0-1.17,0.87-2.15,1.99-2.32l-0.56,2.08c-0.13,0.5,0.16,1.01,0.66,1.15    c0.08,0.02,0.16,0.03,0.24,0.03c0.41,0,0.79-0.28,0.9-0.7L9.43,19.77z"></path>
		<path fill="#FF6600" d="M24.05,16.03c0,0.52,0.42,0.94,0.94,0.94s0.94-0.42,0.94-0.94c0-0.52-0.42-0.94-0.94-0.94l0,0    C24.47,15.09,24.05,15.51,24.05,16.03z"></path>
	</g>
</g>
</svg>