<?xml version="1.0" ?>

<svg id="Component_7_1" data-name="Component 7 – 1" xmlns="http://www.w3.org/2000/svg" width="33" height="33" viewBox="0 0 33 33">
  <g id="Component_5_2" data-name="Component 5 – 2">
    <path id="Path_26" data-name="Path 26" d="M16.5,0A16.5,16.5,0,0,0,0,16.5H0A16.5,16.5,0,0,0,16.5,33h0A16.5,16.5,0,0,0,33,16.5h0A16.5,16.5,0,0,0,16.5,0Z" fill="#40b3e0"/>
    <path id="Path_27" data-name="Path 27" d="M63.938,69.762l-2.88,14.518a1.066,1.066,0,0,1-1.51.524L52.9,79.71l-2.416-1.168L46.42,77.172s-.624-.221-.685-.7.7-.745.7-.745L62.609,69.38s1.329-.584,1.329.383" transform="translate(-39.661 -60.089)" fill="#fff"/>
  </g>
  <path id="Path_28" data-name="Path 28" d="M85.394,104.816s-.194-.018-.436-.784-1.47-4.792-1.47-4.792l9.766-6.2s.564-.342.544,0c0,0,.1.06-.2.342s-7.672,6.907-7.672,6.907" transform="translate(-72.61 -80.752)" fill="#d2e5f1"/>
  <path id="Path_29" data-name="Path 29" d="M101.676,154.259l-2.628,2.4a.461.461,0,0,1-.43.058l.5-4.451" transform="translate(-85.875 -132.562)" fill="#b5cfe4"/>
</svg>


