<svg width="64px" height="56px" version="1.1" id="Layer_1" xmlns="http://www.w3.org/2000/svg" xmlns:xlink="http://www.w3.org/1999/xlink" x="0px" y="0px" viewBox="0 0 64 58" enable-background="new 0 0 64 58" xml:space="preserve">
<g>
	<path fill="#ffffff" d="M61.57,32.99c-0.32-0.51-0.67-0.99-1.04-1.45c0,0,2.93-4.74-1.39-7.52c-1.25-0.8-2.6-1.44-3.99-1.94V6.8   c1.35-0.3,2.37-1.51,2.37-2.95c0-1.67-1.35-3.02-3.02-3.02H34.4c-0.52,0-0.94,0.42-0.94,0.94s0.42,0.94,0.94,0.94h20.1   c0.63,0,1.14,0.51,1.14,1.14s-0.51,1.14-1.14,1.14H26.97c-0.63,0-1.14-0.51-1.14-1.14s0.51-1.14,1.14-1.14h3.69   c0.52,0,0.94-0.42,0.94-0.94s-0.42-0.94-0.94-0.94h-3.69c-1.67,0-3.02,1.35-3.02,3.02c0,1.36,0.9,2.51,2.14,2.89l-4.45,15.13h-2.58   V15.8c0.87-0.59,1.44-1.59,1.44-2.72v-1.19c0-1.81-1.47-3.28-3.28-3.28h-2.73c-1.81,0-3.28,1.47-3.28,3.28v1.19   c0,1.13,0.57,2.13,1.44,2.72v6.07H9.76c-7.57,0-7.92,7.07-7.92,7.92v10.29c-1.17,1.75-1.85,3.84-1.85,6.1   c0,6.07,4.94,11.01,11.01,11.01c4.98,0,9.19-3.32,10.55-7.86h13.03c2.74,4.7,7.83,7.86,13.64,7.86c8.7,0,15.77-7.08,15.77-15.77   C64,38.41,63.16,35.5,61.57,32.99z M40.17,6.86h13.1V21.5c-1.64-0.42-3.34-0.63-5.05-0.63c-2.17,0-4.29,0.35-6.29,0.99h-1.77   L40.17,6.86L40.17,6.86z M28.01,6.86H38.3v15H23.6L28.01,6.86z M13.08,11.89c0-0.78,0.63-1.41,1.41-1.41h2.73   c0.78,0,1.41,0.63,1.41,1.41v1.19c0,0.78-0.63,1.41-1.41,1.41h-2.73c-0.78,0-1.41-0.63-1.41-1.41V11.89z M17.19,16.36v5.5h-2.66   v-5.5H17.19z M11.01,55.3c-5.04,0-9.13-4.1-9.13-9.13s4.1-9.13,9.13-9.13c5.04,0,9.13,4.1,9.13,9.13   C20.14,51.2,16.04,55.3,11.01,55.3z M21.94,47.44c0.05-0.42,0.07-0.84,0.07-1.27c0-6.07-4.94-11.01-11.01-11.01   c-2.79,0-5.34,1.04-7.28,2.76v-8.14c0-0.43,0.05-0.84,0.13-1.25h4.76c0.8,0,1.45,0.65,1.45,1.45c0,0.8-0.65,1.45-1.45,1.45H7.05   c-0.52,0-0.94,0.42-0.94,0.94s0.42,0.94,0.94,0.94h1.56c1.83,0,3.33-1.49,3.33-3.33c0-1.83-1.49-3.33-3.33-3.33H4.59   c1.06-1.75,2.98-2.92,5.17-2.92h28.02c-4.47,2.65-7.91,6.96-9.36,12.21c-0.42,1.52-0.11,3.12,0.85,4.38   c0.8,1.04,1.93,1.72,3.19,1.94c0.1,1.82,0.51,3.57,1.18,5.17L21.94,47.44L21.94,47.44z M48.23,55.3c-7.67,0-13.9-6.24-13.9-13.9   s6.24-13.9,13.9-13.9c0.95,0,1.9,0.1,2.82,0.29c0.51,0.1,1-0.22,1.11-0.73c0.1-0.51-0.22-1-0.73-1.11   c-1.05-0.22-2.12-0.33-3.2-0.33c-8.34,0-15.2,6.51-15.74,14.72c-0.67-0.18-1.27-0.58-1.71-1.16c-0.6-0.79-0.8-1.79-0.54-2.74   c2.22-8.07,9.62-13.7,17.99-13.7c3.52,0,6.94,0.99,9.91,2.86c2.62,1.64,1,4.41,1,4.41c-1.14-1.1-2.45-2.02-3.88-2.74   c-0.46-0.23-1.03-0.04-1.26,0.42c-0.23,0.46-0.04,1.03,0.42,1.26c4.75,2.37,7.71,7.14,7.71,12.45   C62.13,49.06,55.89,55.3,48.23,55.3z"></path>
	<path fill="#ffffff" d="M48.23,33.65c-4.27,0-7.75,3.48-7.75,7.75s3.48,7.75,7.75,7.75s7.75-3.47,7.75-7.75   C55.97,37.13,52.5,33.65,48.23,33.65z M48.23,47.27c-3.24,0-5.87-2.63-5.87-5.87s2.63-5.87,5.87-5.87s5.87,2.63,5.87,5.87   C54.1,44.64,51.46,47.27,48.23,47.27z"></path>
	<path fill="#ffffff" d="M11.01,41.07c-2.81,0-5.1,2.29-5.1,5.1s2.29,5.1,5.1,5.1c2.81,0,5.1-2.29,5.1-5.1   C16.1,43.36,13.82,41.07,11.01,41.07z M11.01,49.39c-1.78,0-3.22-1.44-3.22-3.22s1.45-3.22,3.22-3.22c1.78,0,3.22,1.44,3.22,3.22   C14.23,47.94,12.78,49.39,11.01,49.39z"></path>
</g>
</svg>