<svg width="64px" height="44px" version="1.1" id="Capa_1" xmlns="http://www.w3.org/2000/svg" xmlns:xlink="http://www.w3.org/1999/xlink" x="0px" y="0px" viewBox="0 0 64 45" enable-background="new 0 0 64 45" xml:space="preserve">
<g>
	<g>
		<path fill="#FF6600" d="M0,23.37v10.14c0,0.03,0,0.04,0,0.06c0,1.99,1.61,3.6,3.6,3.6h1.84c0,0.14,0,0.19,0,0.29    c0,0.03,0,0.04,0,0.07c0.01,4.09,3.34,7.39,7.43,7.37c4.09-0.01,7.39-3.34,7.37-7.43c0-0.08,0-0.14,0-0.29h24.62    c-0.01,0.14-0.01,0.19-0.01,0.29c0,0.03,0,0.04,0,0.07c0.01,4.09,3.34,7.39,7.43,7.37c4.09-0.01,7.39-3.34,7.37-7.43    c0-0.09-0.01-0.14-0.01-0.29h0.76c0.03,0,0.04,0,0.06,0c1.99-0.03,3.57-1.66,3.54-3.64V5.97c0-3.24-2.57-5.92-5.83-5.92H27.71    c-3.26,0-5.86,2.66-5.86,5.92v1.8h-6.37c-2.21-0.01-4.24,1.21-5.24,3.19l-3.7,7.2l-4.36,1.89C0.83,20.64-0.03,21.97,0,23.37z     M47.7,37.53c0-2.51,2.03-4.54,4.54-4.54s4.54,2.03,4.54,4.54s-2.03,4.54-4.54,4.54C49.74,42.08,47.7,40.03,47.7,37.53z     M24.71,26.23h36.44v7.36c0,0.44-0.3,0.79-0.74,0.79h-1.46c-1.2-2.63-3.82-4.29-6.7-4.27c-2.87-0.01-5.5,1.66-6.7,4.27H24.72    v-8.15H24.71z M24.71,5.98c-0.01-1.66,1.33-3.03,3-3.04h30.46c1.67,0,2.97,1.39,2.97,3.06v17.38H24.7V6V5.98H24.71z M21.85,17.8    H9.9l2.86-5.53c0.53-1.01,1.59-1.63,2.71-1.61h6.37v7.14H21.85z M8.29,37.53c0-2.51,2.03-4.54,4.54-4.54s4.54,2.03,4.54,4.54    s-2.03,4.54-4.54,4.54C10.32,42.08,8.29,40.03,8.29,37.53z M2.84,23.43c-0.01-0.31,0.17-0.63,0.46-0.77l4.54-2h14v13.72h-2.31    c-0.73-1.57-2-2.84-3.57-3.57c-3.7-1.73-8.1-0.13-9.83,3.57H3.59c-0.44,0-0.74-0.34-0.74-0.79V23.43H2.84z"></path>
	</g>
</g>
</svg>