<?xml version="1.0" ?>

<svg xmlns="http://www.w3.org/2000/svg" viewBox="0 0 33.5 33.5">
  <path id="user-svgrepo-com" d="M33,16.5A16.5,16.5,0,1,0,5.356,28.655l-.016.014.535.451c.035.029.073.053.107.082.284.236.579.46.879.676.1.07.194.14.293.209q.481.331.985.629c.073.043.147.085.221.127.368.209.743.407,1.128.588l.085.038a16.351,16.351,0,0,0,3.991,1.263l.11.02c.434.075.874.135,1.318.175l.163.013c.443.037.89.06,1.344.06s.893-.023,1.333-.059L18,32.929q.661-.06,1.307-.172l.112-.02A16.351,16.351,0,0,0,23.354,31.5l.137-.062q.555-.261,1.087-.562.132-.075.263-.152c.323-.19.64-.389.949-.6.111-.076.22-.155.329-.235.263-.19.522-.385.773-.59.056-.045.116-.084.17-.13l.549-.458L27.6,28.7A16.457,16.457,0,0,0,33,16.5Zm-31.8,0A15.3,15.3,0,1,1,26.647,27.938a4.5,4.5,0,0,0-.536-.322l-5.08-2.54a1.33,1.33,0,0,1-.739-1.2V22.106c.118-.145.242-.31.37-.49a12.227,12.227,0,0,0,1.57-3.074,2.178,2.178,0,0,0,1.251-1.973V14.441a2.183,2.183,0,0,0-.532-1.421v-2.8A4.839,4.839,0,0,0,21.82,6.7c-1.106-1.262-2.9-1.9-5.32-1.9s-4.214.639-5.32,1.9a4.839,4.839,0,0,0-1.13,3.518v2.8a2.186,2.186,0,0,0-.532,1.421v2.127a2.183,2.183,0,0,0,.8,1.693,11.274,11.274,0,0,0,1.856,3.833V23.83a1.338,1.338,0,0,1-.7,1.175L6.736,27.593a4.336,4.336,0,0,0-.451.286A15.263,15.263,0,0,1,1.2,16.5ZM25.475,28.879q-.315.229-.64.441c-.1.065-.2.13-.3.193-.283.175-.571.342-.865.5-.065.034-.13.067-.2.1A15.289,15.289,0,0,1,21.382,31l-.076.026q-.564.187-1.142.331h0c-.389.1-.782.176-1.178.241l-.032.006c-.373.061-.748.1-1.125.137-.067.006-.133.01-.2.015-.373.028-.747.046-1.123.046s-.76-.019-1.137-.047c-.065,0-.131-.009-.2-.015-.38-.034-.759-.079-1.134-.14l-.05-.009a15.243,15.243,0,0,1-2.334-.583l-.071-.024q-.566-.193-1.117-.428l-.008,0c-.347-.149-.687-.315-1.023-.49-.044-.023-.088-.044-.131-.068-.307-.164-.607-.341-.9-.526L8.135,29.3c-.272-.178-.541-.364-.8-.56l-.08-.062.058-.032,4.744-2.588a2.537,2.537,0,0,0,1.323-2.228V21.669l-.138-.167a10.018,10.018,0,0,1-1.8-3.73l-.055-.238-.2-.133a.994.994,0,0,1-.461-.835V14.44a.98.98,0,0,1,.334-.734l.2-.179V10.186l-.005-.079a3.614,3.614,0,0,1,.838-2.616C12.95,6.5,14.437,6,16.5,6s3.538.5,4.408,1.48a3.674,3.674,0,0,1,.848,2.629l-.005,3.421.2.179a.981.981,0,0,1,.334.734v2.127a1,1,0,0,1-.709.945l-.3.092-.1.3a11.1,11.1,0,0,1-1.5,3.019c-.157.222-.31.419-.442.569l-.149.17V23.88a2.523,2.523,0,0,0,1.4,2.269l5.08,2.54.1.05C25.606,28.787,25.54,28.832,25.475,28.879Z" transform="translate(0.25 0.25)" fill="#6a6a6a" stroke="#6a6a6a" stroke-width="0.5"/>
</svg>

