<?xml version="1.0" ?>

<svg id="viber-svgrepo-com" xmlns="http://www.w3.org/2000/svg" width="33" height="33" viewBox="0 0 33 33">
  <g id="Component_6_1" data-name="Component 6 – 1">
    <circle id="Ellipse_2" data-name="Ellipse 2" cx="16.5" cy="16.5" r="16.5" fill="#6f3faa"/>
    <path id="Path_6" data-name="Path 6" d="M145.784,120.875c-4-.967-8.014-2.1-12.12-.661-2.658,1-2.658,3.877-2.548,6.314,0,.665-.775,1.551-.443,2.326.665,2.215,1.218,4.431,3.544,5.538.332.222,0,.665.222,1-.111,0-.332.111-.332.222a7.4,7.4,0,0,1,.08,1.867l7.068,7.065A16.456,16.456,0,0,0,155,130.09Z" transform="translate(-122.199 -111.851)" fill="#512d84"/>
    <g id="Group_2" data-name="Group 2" transform="translate(7.34 7.034)">
      <path id="Path_7" data-name="Path 7" d="M132.044,114l-.005-.022a6.281,6.281,0,0,0-4.24-4.08l-.02,0a23.565,23.565,0,0,0-8.87,0l-.021,0a6.283,6.283,0,0,0-4.24,4.08l0,.022a17.361,17.361,0,0,0,0,7.479l0,.022a6.335,6.335,0,0,0,4.007,4.02V127.5a.8.8,0,0,0,1.372.552l2.009-2.089c.436.024.872.038,1.308.038a23.647,23.647,0,0,0,4.435-.421l.021,0a6.281,6.281,0,0,0,4.24-4.08l.005-.022A17.363,17.363,0,0,0,132.044,114Zm-1.59,7.119a4.75,4.75,0,0,1-2.993,2.866,21.963,21.963,0,0,1-4.718.381.111.111,0,0,0-.083.034l-1.467,1.506-1.561,1.6a.183.183,0,0,1-.315-.126v-3.286a.113.113,0,0,0-.092-.111h0a4.752,4.752,0,0,1-2.993-2.866,15.754,15.754,0,0,1,0-6.759,4.752,4.752,0,0,1,2.993-2.866,21.947,21.947,0,0,1,8.236,0,4.749,4.749,0,0,1,2.993,2.866A15.737,15.737,0,0,1,130.454,121.114Z" transform="translate(-114.234 -109.468)" fill="#fff"/>
      <path id="Path_8" data-name="Path 8" d="M189.533,182.517c-.184-.056-.359-.093-.522-.161a11.848,11.848,0,0,1-4.465-2.984,11.586,11.586,0,0,1-1.708-2.614c-.219-.446-.4-.908-.592-1.368a1.187,1.187,0,0,1,.347-1.169,2.746,2.746,0,0,1,.92-.691.59.59,0,0,1,.738.175,9.519,9.519,0,0,1,1.142,1.6.761.761,0,0,1-.213,1.031c-.086.059-.165.128-.246.194a.806.806,0,0,0-.186.2.536.536,0,0,0-.036.471,4.258,4.258,0,0,0,2.391,2.648,1.218,1.218,0,0,0,.613.149c.375-.044.5-.455.758-.669a.715.715,0,0,1,.861-.038c.276.175.544.363.811.553a9.257,9.257,0,0,1,.763.581.605.605,0,0,1,.181.749,2.534,2.534,0,0,1-1.089,1.2,2.633,2.633,0,0,1-.471.15C189.349,182.461,189.692,182.468,189.533,182.517Z" transform="translate(-177.824 -169.355)" fill="#fff"/>
      <path id="Path_9" data-name="Path 9" d="M250.285,165.413a4.479,4.479,0,0,1,4.4,3.7c.066.371.09.751.119,1.128a.265.265,0,0,1-.248.311c-.177,0-.256-.146-.268-.3-.023-.314-.038-.629-.082-.94a3.939,3.939,0,0,0-3.172-3.292c-.246-.044-.5-.055-.747-.082-.157-.017-.364-.026-.4-.222a.269.269,0,0,1,.266-.3c.042,0,.085,0,.128,0C252.49,165.475,250.243,165.413,250.285,165.413Z" transform="translate(-241.172 -161.818)" fill="#fff"/>
      <path id="Path_10" data-name="Path 10" d="M259.531,186.918a1,1,0,0,1-.022.153.25.25,0,0,1-.471.026.665.665,0,0,1-.026-.213,2.67,2.67,0,0,0-.338-1.34,2.493,2.493,0,0,0-1.046-.981,3,3,0,0,0-.833-.256c-.126-.021-.253-.033-.379-.051a.24.24,0,0,1-.227-.269.237.237,0,0,1,.264-.234,3.465,3.465,0,0,1,1.444.376,2.921,2.921,0,0,1,1.59,2.27c.007.046.018.092.021.138.009.114.014.229.023.38C259.527,186.946,259.522,186.767,259.531,186.918Z" transform="translate(-247.067 -178.98)" fill="#fff"/>
      <path id="Path_11" data-name="Path 11" d="M263.037,204.452a.272.272,0,0,1-.3-.268,2.772,2.772,0,0,0-.052-.352.991.991,0,0,0-.366-.574.958.958,0,0,0-.3-.144c-.135-.039-.276-.028-.411-.061a.252.252,0,0,1-.2-.292.265.265,0,0,1,.279-.213,1.516,1.516,0,0,1,1.553,1.51.7.7,0,0,1,0,.214.219.219,0,0,1-.2.18C262.853,204.455,263.121,204.446,263.037,204.452Z" transform="translate(-251.945 -196.567)" fill="#fff"/>
    </g>
    <path id="Path_12" data-name="Path 12" d="M156.945,138.518l-.005-.022a5.849,5.849,0,0,0-1.893-2.821l-1.237,1.1a4.448,4.448,0,0,1,1.545,2.106,15.736,15.736,0,0,1,0,6.759,4.751,4.751,0,0,1-2.993,2.866,21.964,21.964,0,0,1-4.718.381.111.111,0,0,0-.083.034l-1.467,1.506-1.561,1.6a.183.183,0,0,1-.315-.126v-3.286a.113.113,0,0,0-.092-.111h0a4.447,4.447,0,0,1-2.058-1.325l-1.223,1.083a6.2,6.2,0,0,0,2.709,1.777v1.983a.8.8,0,0,0,1.372.552l2.009-2.089c.436.024.872.038,1.308.038a23.647,23.647,0,0,0,4.435-.421l.02,0a6.281,6.281,0,0,0,4.24-4.08l.005-.022A17.363,17.363,0,0,0,156.945,138.518Z" transform="translate(-131.795 -126.958)" fill="#d1d1d1"/>
    <path id="Path_13" data-name="Path 13" d="M295.659,313.753c.16-.049-.184-.056,0,0Z" transform="translate(-276.61 -293.557)" fill="#fff"/>
    <path id="Path_14" data-name="Path 14" d="M223.887,253.111a9.3,9.3,0,0,0-.763-.581c-.266-.19-.534-.378-.811-.553a.715.715,0,0,0-.861.038c-.263.215-.384.626-.758.669a1.218,1.218,0,0,1-.613-.149,3.965,3.965,0,0,1-1.741-1.385l-.91.806c.031.036.06.073.092.108a11.849,11.849,0,0,0,4.465,2.984c.163.067.338.1.522.161-.184-.056.16-.049,0,0a2.63,2.63,0,0,0,.471-.15,2.533,2.533,0,0,0,1.089-1.2A.605.605,0,0,0,223.887,253.111Z" transform="translate(-203.46 -235.014)" fill="#d1d1d1"/>
    <g id="Group_3" data-name="Group 3" transform="translate(16.453 10.629)">
      <path id="Path_15" data-name="Path 15" d="M256.07,165.427h0Z" transform="translate(-256.064 -165.427)" fill="#fff"/>
      <path id="Path_16" data-name="Path 16" d="M256.072,165.426h.006C256.2,165.431,258.19,165.485,256.072,165.426Z" transform="translate(-256.071 -165.426)" fill="#fff"/>
    </g>
    <g id="Group_4" data-name="Group 4" transform="translate(18.44 11.94)">
      <path id="Path_17" data-name="Path 17" d="M299.636,185.837l-.388.344a3.892,3.892,0,0,1,1.15,2.244c.043.311.059.626.082.94.012.159.091.306.268.3a.265.265,0,0,0,.248-.311c-.03-.377-.053-.757-.119-1.128A4.426,4.426,0,0,0,299.636,185.837Z" transform="translate(-298.46 -185.837)" fill="#d1d1d1"/>
      <path id="Path_18" data-name="Path 18" d="M288.31,198.528a2.942,2.942,0,0,0-.932-1.813l-.387.343a2.513,2.513,0,0,1,.506.616,2.67,2.67,0,0,1,.338,1.34.666.666,0,0,0,.026.213.25.25,0,0,0,.471-.026,1.008,1.008,0,0,0,.022-.153c0,.028-.009-.151,0,0-.009-.151-.014-.266-.023-.381C288.328,198.62,288.317,198.575,288.31,198.528Z" transform="translate(-286.991 -196.016)" fill="#d1d1d1"/>
    </g>
    <g id="Group_5" data-name="Group 5" transform="translate(18.366 14.91)">
      <path id="Path_19" data-name="Path 19" d="M308.142,232.123c-.009-.151,0,.027,0,0Z" transform="translate(-306.704 -232.061)" fill="#fff"/>
      <path id="Path_20" data-name="Path 20" d="M286.529,232.159l.008,0h-.008Z" transform="translate(-286.462 -232.151)" fill="#fff"/>
      <path id="Path_21" data-name="Path 21" d="M285.908,232.168h-.024C285.844,232.168,285.8,232.17,285.908,232.168Z" transform="translate(-285.842 -232.16)" fill="#fff"/>
      <path id="Path_22" data-name="Path 22" d="M286.88,232.157l-.008,0C286.894,232.158,286.892,232.157,286.88,232.157Z" transform="translate(-286.806 -232.151)" fill="#fff"/>
    </g>
    <path id="Path_23" data-name="Path 23" d="M275.08,207.525l-.394.349c.022.013.043.027.064.042a.991.991,0,0,1,.366.574,2.78,2.78,0,0,1,.052.352.269.269,0,0,0,.279.267h.032a.219.219,0,0,0,.189-.178.7.7,0,0,0,0-.214A1.563,1.563,0,0,0,275.08,207.525Z" transform="translate(-257.037 -194.191)" fill="#d1d1d1"/>
  </g>
</svg>


