<?xml version="1.0" ?>

<svg id="whatsapp-svgrepo-com" xmlns="http://www.w3.org/2000/svg" width="33" height="33" viewBox="0 0 33 33">
  <rect id="Rectangle_2" data-name="Rectangle 2" width="33" height="33" rx="16.5" fill="#1bd741"/>
  <g id="Group_6" data-name="Group 6" transform="translate(4.983 4.97)">
    <path id="Path_24" data-name="Path 24" d="M68.494,91.534l1.624-5.768A11.574,11.574,0,1,1,74.442,90ZM74.746,87.9l.354.216a9.612,9.612,0,1,0-3.094-3.025l.239.372-.935,3.322Z" transform="translate(-68.494 -68.321)" fill="#fff"/>
    <path id="Path_25" data-name="Path 25" d="M150.2,152.868l-.751-.041a.909.909,0,0,0-.646.221,3.423,3.423,0,0,0-1.126,1.725,5.228,5.228,0,0,0,1.212,4.1,12.192,12.192,0,0,0,6.572,4.777,3.2,3.2,0,0,0,2.712-.336,2.426,2.426,0,0,0,1.055-1.54l.12-.56a.389.389,0,0,0-.218-.435l-2.539-1.17a.389.389,0,0,0-.471.116l-1,1.292a.285.285,0,0,1-.321.1,7.806,7.806,0,0,1-4.224-3.615.288.288,0,0,1,.036-.321l.953-1.1a.389.389,0,0,0,.063-.408l-1.095-2.561A.389.389,0,0,0,150.2,152.868Z" transform="translate(-141.843 -146.678)" fill="#fff"/>
  </g>
</svg>



